<svg id="LM_-_gunmetal_regular" data-name="LM - gunmetal regular" xmlns="http://www.w3.org/2000/svg" xmlns:xlink="http://www.w3.org/1999/xlink" width="312" height="312" viewBox="0 0 312 312">
  <defs>
    <clipPath id="clip-path">
      <rect id="Rectangle_35" data-name="Rectangle 35" width="312" height="312" fill="#3d4148"/>
    </clipPath>
  </defs>
  <g id="Group_1" data-name="Group 1" clip-path="url(#clip-path)">
    <path id="Path_17" data-name="Path 17" d="M91.289,74.442A47.657,47.657,0,0,1,70.047,69.53L30.41,49.71,91.289,19.324l45.762,22.84a8.18,8.18,0,0,1,.006,15.1L112.531,69.53a47.657,47.657,0,0,1-21.242,4.912" transform="translate(64.627 32.976)" fill="#3d4148"/>
    <path id="Path_18" data-name="Path 18" d="M285.205,64.642,155.919,0,0,77.958V207.245c0,16.426,10.2,31.731,26.63,39.943l129.289,64.645,155.916-77.958V104.585c0-16.423-10.2-31.728-26.63-39.943m12.141,161.987L176.264,287.17v-9.245c0-55.992,34.493-107.735,90.487-135.731l30.6-15.3ZM56.819,111.175c58.282,31.1,94.268,86.632,94.268,146.127V294.93L33.874,236.321c-11.995-6-19.386-17.081-19.386-29.076V85.2L155.919,14.488l84.787,42.395c10.088,5.805,16.013,15.4,15.926,26.037-.091,11.186-7.425,21.395-18.614,26.987l-42.871,21.438a89.339,89.339,0,0,1-78.458,0l-54.7-27.655c-3.363-1.7-7.582.4-7.582,3.77a4.285,4.285,0,0,0,2.416,3.716" fill="#3d4148"/>
    <path id="Path_19" data-name="Path 19" d="M146.064,5.353,4.636,76.066Z" transform="translate(9.852 9.135)" fill="#3d4148"/>
    <path id="Path_20" data-name="Path 20" d="M4.636,31.48v0Z" transform="translate(9.852 53.721)" fill="#3d4148"/>
    <path id="Path_21" data-name="Path 21" d="M78.633,183.325V166.531c0-43.656-22.855-84.478-61.226-111.521v97.7Z" transform="translate(36.993 93.875)" fill="#3d4148"/>
  </g>
</svg>
